# xmcd
#
# Track frame offsets: 
#        182
#        13735
#        32565
#        52525
#        70365
#        89270
#        115105
#        138475
#        155455
#        173187
#        191300
#
# Disc length: 2991 seconds
#
# Revision: 0
# Processed by: cddbd v1.5.1PL2 Copyright (c) Steve Scherf et al.
# Submitted via: ExactAudioCopy v0.95a3
#
DISCID=840bad0b
DTITLE=Juicy Lucy - Here She Comes Again
DYEAR=1995
DGENRE=Blues
TTITLE0=Who Do You Love
TTITLE1=Saturday Night
TTITLE2=Here She Comes Again
TTITLE3=Talk To Me
TTITLE4=Try My Love
TTITLE5=Gone Tomorrow
TTITLE6=Voodoo Chile
TTITLE7=Instrumentalizationalized
TTITLE8=Up To The Trax
TTITLE9=Pretty Woman
TTITLE10=Drug Squad
EXTD=
EXTT0=
EXTT1=
EXTT2=
EXTT3=
EXTT4=
EXTT5=
EXTT6=
EXTT7=
EXTT8=
EXTT9=
EXTT10=
PLAYORDER=
